<svg id="visual" viewBox="0 0 900 600" width="900" height="600" xmlns="http://www.w3.org/2000/svg" xmlns:xlink="http://www.w3.org/1999/xlink" version="1.1"><rect x="0" y="0" width="900" height="600" fill="#001220"></rect><defs><linearGradient id="grad1_0" x1="33.3%" y1="0%" x2="100%" y2="100%"><stop offset="20%" stop-color="#001220" stop-opacity="1"></stop><stop offset="80%" stop-color="#001220" stop-opacity="1"></stop></linearGradient></defs><defs><linearGradient id="grad2_0" x1="0%" y1="0%" x2="66.7%" y2="100%"><stop offset="20%" stop-color="#001220" stop-opacity="1"></stop><stop offset="80%" stop-color="#001220" stop-opacity="1"></stop></linearGradient></defs><g transform="translate(900, 0)"><path d="M0 351.5C-47.8 348.1 -95.6 344.6 -134.5 324.8C-173.5 305 -203.6 268.8 -235.5 235.5C-267.3 202.1 -300.9 171.6 -320.6 132.8C-340.2 94 -345.9 47 -351.5 0L0 0Z" fill="#FBAE3C"></path></g><g transform="translate(0, 600)"><path d="M0 -351.5C46 -346.7 91.9 -341.9 134.5 -324.8C177.2 -307.7 216.4 -278.3 242.5 -242.5C268.6 -206.8 281.5 -164.7 297.5 -123.2C313.5 -81.7 332.5 -40.9 351.5 0L0 0Z" fill="#FBAE3C"></path></g></svg>