<svg id="visual" viewBox="0 0 900 600" width="900" height="600" xmlns="http://www.w3.org/2000/svg" xmlns:xlink="http://www.w3.org/1999/xlink" version="1.1"><path d="M0 43L100 61L200 55L300 73L400 43L500 43L600 49L700 49L800 25L900 43L900 0L800 0L700 0L600 0L500 0L400 0L300 0L200 0L100 0L0 0Z" fill="#eccbf7"></path><path d="M0 97L100 139L200 151L300 151L400 133L500 109L600 97L700 121L800 121L900 145L900 41L800 23L700 47L600 47L500 41L400 41L300 71L200 53L100 59L0 41Z" fill="#efd4f8"></path><path d="M0 289L100 301L200 277L300 343L400 307L500 283L600 307L700 247L800 223L900 271L900 143L800 119L700 119L600 95L500 107L400 131L300 149L200 149L100 137L0 95Z" fill="#f3dcfa"></path><path d="M0 385L100 403L200 355L300 463L400 361L500 391L600 361L700 337L800 337L900 379L900 269L800 221L700 245L600 305L500 281L400 305L300 341L200 275L100 299L0 287Z" fill="#f6e5fb"></path><path d="M0 439L100 469L200 421L300 487L400 415L500 421L600 391L700 373L800 367L900 421L900 377L800 335L700 335L600 359L500 389L400 359L300 461L200 353L100 401L0 383Z" fill="#f9eefc"></path><path d="M0 541L100 535L200 535L300 547L400 547L500 553L600 523L700 511L800 547L900 571L900 419L800 365L700 371L600 389L500 419L400 413L300 485L200 419L100 467L0 437Z" fill="#fcf6fe"></path><path d="M0 601L100 601L200 601L300 601L400 601L500 601L600 601L700 601L800 601L900 601L900 569L800 545L700 509L600 521L500 551L400 545L300 545L200 533L100 533L0 539Z" fill="#ffffff"></path></svg>